<svg data-name="Layer 1" id="Layer_1" viewBox="0 0 512 512" xmlns="http://www.w3.org/2000/svg">
    <title />
    <path d="M142.63,302.5a5.24,5.24,0,0,0-5.24,5.24V392a5.25,5.25,0,1,0,10.49,0V307.74A5.24,5.24,0,0,0,142.63,302.5Z" />
    <path d="M402.33,182.76h-6.46a39.24,39.24,0,1,0-53,0h-4.29L291,135.12c-8.89-8.9-24.41-8.9-33.3,0a22.52,22.52,0,0,0-1.65,2,23,23,0,0,0-1.66-2,23.61,23.61,0,0,0-33.31,0l-47.63,47.64h-4.28a39.25,39.25,0,1,0-53,0h-6.45a34.41,34.41,0,0,0-34.37,34.37v60.05a35.86,35.86,0,0,0,30.56,35.42V392a5.25,5.25,0,1,0,10.49,0V307.74s0-.07,0-.1V217a5.25,5.25,0,0,0-10.49,0v84.92a25.36,25.36,0,0,1-20.06-24.75V217.13a23.92,23.92,0,0,1,23.89-23.89h65.9a5.23,5.23,0,0,0,3.7-1.53l49.17-49.17A13.07,13.07,0,1,1,246.94,161l-76.51,76.5a5.28,5.28,0,0,0-1.54,3.71v66.52s0,0,0,.05V392a5.25,5.25,0,1,0,10.49,0V307.74s0,0,0-.05v-64.3l75-75a22.52,22.52,0,0,0,1.65-2,24.51,24.51,0,0,0,1.66,2l75,75v64.3s0,0,0,.05V392a5.25,5.25,0,1,0,10.49,0v-84.2s0,0,0-.05V241.22a5.28,5.28,0,0,0-1.54-3.71L265.07,161a13.09,13.09,0,0,1,0-18.48,13.39,13.39,0,0,1,18.48,0l49.17,49.18a5.23,5.23,0,0,0,3.7,1.53h65.91a23.91,23.91,0,0,1,23.88,23.89v60.05a25.35,25.35,0,0,1-20.06,24.75V217a5.25,5.25,0,0,0-10.49,0v90.68s0,0,0,.05V392a5.25,5.25,0,1,0,10.49,0V312.6a35.86,35.86,0,0,0,30.55-35.42V217.13A34.4,34.4,0,0,0,402.33,182.76ZM113.87,154a28.76,28.76,0,1,1,28.76,28.76A28.79,28.79,0,0,1,113.87,154Zm226.75,0a28.76,28.76,0,1,1,28.76,28.76A28.79,28.79,0,0,1,340.62,154Z" />
    <path d="M369.38,302.5a5.24,5.24,0,0,0-5.25,5.24V392a5.25,5.25,0,1,0,10.49,0V307.74A5.24,5.24,0,0,0,369.38,302.5Z" />
</svg>